<svg width="1280" height="780" viewBox="0 0 1280 780" fill="none" xmlns="http://www.w3.org/2000/svg">
  <defs>
    <linearGradient id="bg" x1="140" y1="80" x2="1150" y2="700" gradientUnits="userSpaceOnUse">
      <stop offset="0" stop-color="#F8FBFF"/>
      <stop offset="1" stop-color="#E8F0FF"/>
    </linearGradient>
    <linearGradient id="card" x1="420" y1="220" x2="980" y2="610" gradientUnits="userSpaceOnUse">
      <stop offset="0" stop-color="#FFFFFF"/>
      <stop offset="1" stop-color="#F4F8FF"/>
    </linearGradient>
    <filter id="shadow" x="240" y="120" width="820" height="560" filterUnits="userSpaceOnUse" color-interpolation-filters="sRGB">
      <feDropShadow dx="0" dy="20" stdDeviation="18" flood-color="#0D2C72" flood-opacity="0.16"/>
    </filter>
  </defs>

  <rect width="1280" height="780" rx="44" fill="url(#bg)"/>

  <circle cx="160" cy="120" r="220" fill="#EAF1FF"/>
  <circle cx="1160" cy="690" r="260" fill="#EAF1FF"/>

  <g filter="url(#shadow)">
    <rect x="340" y="170" width="600" height="420" rx="30" fill="url(#card)" stroke="#C7D6F7" stroke-width="2"/>
  </g>

  <rect x="380" y="220" width="240" height="120" rx="16" fill="#FFFFFF" stroke="#D5E1FB" stroke-width="2"/>
  <rect x="404" y="248" width="132" height="14" rx="7" fill="#CFE0FF"/>
  <rect x="404" y="276" width="172" height="12" rx="6" fill="#DCE8FF"/>

  <rect x="660" y="220" width="240" height="120" rx="16" fill="#FFFFFF" stroke="#D5E1FB" stroke-width="2"/>
  <rect x="684" y="248" width="116" height="14" rx="7" fill="#CFE0FF"/>
  <rect x="684" y="276" width="152" height="12" rx="6" fill="#DCE8FF"/>

  <rect x="380" y="370" width="520" height="180" rx="18" fill="#FFFFFF" stroke="#D5E1FB" stroke-width="2"/>
  <rect x="414" y="412" width="320" height="16" rx="8" fill="#DCE8FF"/>
  <rect x="414" y="442" width="430" height="14" rx="7" fill="#E7EFFF"/>
  <rect x="414" y="468" width="390" height="14" rx="7" fill="#E7EFFF"/>
  <rect x="414" y="494" width="280" height="14" rx="7" fill="#E7EFFF"/>

  <rect x="760" y="410" width="110" height="110" rx="22" fill="#E3FF04" stroke="#C9E500" stroke-width="2"/>
  <path d="M806 475L788 457L800 445L806 451L830 427L842 439L806 475Z" fill="#1C2100"/>

  <circle cx="240" cy="560" r="70" fill="#002C8F"/>
  <path d="M240 530C252 530 262 540 262 552V560H218V552C218 540 228 530 240 530Z" fill="#FFFFFF"/>
  <circle cx="240" cy="514" r="16" fill="#FFFFFF"/>

  <rect x="980" y="250" width="190" height="250" rx="24" fill="#FFFFFF" stroke="#C7D6F7" stroke-width="2"/>
  <rect x="1016" y="288" width="118" height="10" rx="5" fill="#D8E5FF"/>
  <rect x="1016" y="315" width="84" height="10" rx="5" fill="#D8E5FF"/>
  <rect x="1016" y="348" width="130" height="62" rx="14" fill="#EEF3FF"/>
  <path d="M1038 382L1060 360L1090 390L1120 350" stroke="#002C8F" stroke-width="8" stroke-linecap="round" stroke-linejoin="round"/>
  <circle cx="1128" cy="140" r="36" fill="#E3FF04"/>
</svg>
