<svg width="1200" height="760" viewBox="0 0 1200 760" fill="none" xmlns="http://www.w3.org/2000/svg">
  <defs>
    <linearGradient id="g1" x1="100" y1="80" x2="1040" y2="680" gradientUnits="userSpaceOnUse">
      <stop offset="0" stop-color="#F9FCFF"/>
      <stop offset="1" stop-color="#E9F1FF"/>
    </linearGradient>
    <filter id="shadow" x="120" y="120" width="960" height="520" filterUnits="userSpaceOnUse" color-interpolation-filters="sRGB">
      <feDropShadow dx="0" dy="18" stdDeviation="16" flood-color="#0F2C72" flood-opacity="0.14"/>
    </filter>
  </defs>

  <rect width="1200" height="760" rx="40" fill="url(#g1)"/>

  <g filter="url(#shadow)">
    <rect x="180" y="170" width="840" height="430" rx="26" fill="#FFFFFF" stroke="#C8D8F8" stroke-width="2"/>
  </g>

  <path d="M330 420V330L600 220L870 330V420" stroke="#002C8F" stroke-width="26" stroke-linecap="round" stroke-linejoin="round"/>
  <rect x="395" y="390" width="410" height="170" rx="18" fill="#EFF4FF" stroke="#C7D6F7" stroke-width="2"/>
  <rect x="560" y="440" width="80" height="120" rx="12" fill="#D7E5FF"/>
  <rect x="440" y="438" width="80" height="64" rx="10" fill="#D7E5FF"/>
  <rect x="680" y="438" width="80" height="64" rx="10" fill="#D7E5FF"/>

  <circle cx="340" cy="530" r="78" fill="#002C8F"/>
  <circle cx="340" cy="530" r="26" fill="#FFFFFF"/>
  <rect x="356" y="518" width="112" height="24" rx="12" fill="#002C8F"/>
  <circle cx="478" cy="530" r="28" fill="#E3FF04" stroke="#CBE600" stroke-width="2"/>

  <rect x="740" y="250" width="210" height="250" rx="20" fill="#FFFFFF" stroke="#C8D8F8" stroke-width="2"/>
  <rect x="774" y="294" width="142" height="12" rx="6" fill="#DCE8FF"/>
  <rect x="774" y="322" width="98" height="12" rx="6" fill="#DCE8FF"/>
  <rect x="774" y="352" width="130" height="12" rx="6" fill="#DCE8FF"/>
  <rect x="774" y="390" width="150" height="70" rx="14" fill="#EEF3FF"/>

  <path d="M808 430L836 458L900 390" stroke="#002C8F" stroke-width="12" stroke-linecap="round" stroke-linejoin="round"/>

  <circle cx="980" cy="118" r="42" fill="#E3FF04"/>
  <rect x="220" y="100" width="300" height="16" rx="8" fill="#CFE0FF"/>
  <rect x="220" y="128" width="230" height="12" rx="6" fill="#DCE8FF"/>
</svg>
