<svg width="1200" height="760" viewBox="0 0 1200 760" fill="none" xmlns="http://www.w3.org/2000/svg">
  <defs>
    <linearGradient id="g1" x1="140" y1="80" x2="1050" y2="700" gradientUnits="userSpaceOnUse">
      <stop offset="0" stop-color="#F9FCFF"/>
      <stop offset="1" stop-color="#EAF2FF"/>
    </linearGradient>
    <filter id="shadow" x="100" y="130" width="1000" height="530" filterUnits="userSpaceOnUse" color-interpolation-filters="sRGB">
      <feDropShadow dx="0" dy="18" stdDeviation="16" flood-color="#0D2D72" flood-opacity="0.14"/>
    </filter>
  </defs>

  <rect width="1200" height="760" rx="40" fill="url(#g1)"/>

  <g filter="url(#shadow)">
    <rect x="170" y="170" width="860" height="430" rx="26" fill="#FFFFFF" stroke="#C8D7F7" stroke-width="2"/>
  </g>

  <rect x="240" y="230" width="300" height="330" rx="20" fill="#FFFFFF" stroke="#C8D7F7" stroke-width="2"/>
  <rect x="278" y="284" width="224" height="12" rx="6" fill="#DCE8FF"/>
  <rect x="278" y="314" width="170" height="12" rx="6" fill="#DCE8FF"/>
  <rect x="278" y="344" width="210" height="12" rx="6" fill="#DCE8FF"/>
  <rect x="278" y="388" width="220" height="130" rx="16" fill="#EEF3FF"/>

  <circle cx="390" cy="453" r="46" fill="#002C8F"/>
  <rect x="378" y="425" width="24" height="56" rx="8" fill="#FFFFFF"/>
  <rect x="362" y="441" width="56" height="24" rx="8" fill="#FFFFFF"/>

  <rect x="590" y="230" width="350" height="330" rx="20" fill="#EFF4FF" stroke="#C8D7F7" stroke-width="2"/>
  <circle cx="705" cy="340" r="64" fill="#FFFFFF" stroke="#C8D7F7" stroke-width="2"/>
  <rect x="692" y="302" width="26" height="76" rx="9" fill="#002C8F"/>
  <rect x="667" y="327" width="76" height="26" rx="9" fill="#002C8F"/>

  <rect x="786" y="300" width="120" height="16" rx="8" fill="#CFDEFF"/>
  <rect x="786" y="332" width="96" height="14" rx="7" fill="#D8E5FF"/>
  <rect x="786" y="360" width="138" height="14" rx="7" fill="#D8E5FF"/>
  <rect x="786" y="388" width="110" height="14" rx="7" fill="#D8E5FF"/>

  <rect x="620" y="446" width="286" height="84" rx="14" fill="#FFFFFF" stroke="#C8D7F7" stroke-width="2"/>
  <path d="M666 491L700 455L740 503L776 469" stroke="#002C8F" stroke-width="10" stroke-linecap="round" stroke-linejoin="round"/>
  <circle cx="844" cy="488" r="26" fill="#E3FF04" stroke="#CADF00" stroke-width="2"/>

  <rect x="238" y="108" width="270" height="16" rx="8" fill="#CFE0FF"/>
  <rect x="238" y="136" width="194" height="12" rx="6" fill="#DCE8FF"/>
  <circle cx="1042" cy="124" r="38" fill="#E3FF04"/>
</svg>
