<svg width="1200" height="760" viewBox="0 0 1200 760" fill="none" xmlns="http://www.w3.org/2000/svg">
  <defs>
    <linearGradient id="g1" x1="120" y1="70" x2="1040" y2="690" gradientUnits="userSpaceOnUse">
      <stop offset="0" stop-color="#F9FCFF"/>
      <stop offset="1" stop-color="#E8F0FF"/>
    </linearGradient>
    <filter id="shadow" x="100" y="140" width="1000" height="520" filterUnits="userSpaceOnUse" color-interpolation-filters="sRGB">
      <feDropShadow dx="0" dy="18" stdDeviation="16" flood-color="#0E2C71" flood-opacity="0.14"/>
    </filter>
  </defs>

  <rect width="1200" height="760" rx="40" fill="url(#g1)"/>

  <g filter="url(#shadow)">
    <rect x="170" y="180" width="860" height="410" rx="26" fill="#FFFFFF" stroke="#C9D7F7" stroke-width="2"/>
  </g>

  <rect x="280" y="360" width="560" height="130" rx="48" fill="#002C8F"/>
  <path d="M350 360L430 286C444 272 463 264 484 264H664C690 264 714 278 726 301L760 360H350Z" fill="#1746B3"/>
  <rect x="430" y="294" width="122" height="58" rx="10" fill="#EAF1FF"/>
  <rect x="572" y="294" width="122" height="58" rx="10" fill="#EAF1FF"/>
  <circle cx="400" cy="502" r="48" fill="#0D214E"/>
  <circle cx="400" cy="502" r="24" fill="#DCE7FF"/>
  <circle cx="712" cy="502" r="48" fill="#0D214E"/>
  <circle cx="712" cy="502" r="24" fill="#DCE7FF"/>

  <path d="M904 340L1020 340L1020 410C1020 458 982 496 934 496H904V340Z" fill="#EEF3FF" stroke="#C7D6F7" stroke-width="2"/>
  <path d="M960 314L1007 334V382C1007 420 985 454 960 468C935 454 913 420 913 382V334L960 314Z" fill="#E3FF04" stroke="#CADF00" stroke-width="2"/>
  <path d="M940 382L956 398L984 364" stroke="#1C2100" stroke-width="10" stroke-linecap="round" stroke-linejoin="round"/>

  <rect x="210" y="220" width="270" height="100" rx="16" fill="#FFFFFF" stroke="#C7D6F7" stroke-width="2"/>
  <rect x="236" y="248" width="174" height="16" rx="8" fill="#CFE0FF"/>
  <rect x="236" y="278" width="206" height="12" rx="6" fill="#DCE8FF"/>

  <circle cx="1048" cy="130" r="38" fill="#E3FF04"/>
</svg>
