<svg width="1280" height="860" viewBox="0 0 1280 860" fill="none" xmlns="http://www.w3.org/2000/svg">
  <defs>
    <linearGradient id="bg" x1="120" y1="40" x2="1160" y2="820" gradientUnits="userSpaceOnUse">
      <stop stop-color="#F6F9FF"/>
      <stop offset="1" stop-color="#E7EEFF"/>
    </linearGradient>
    <linearGradient id="line" x1="320" y1="180" x2="980" y2="640" gradientUnits="userSpaceOnUse">
      <stop stop-color="#002C8F"/>
      <stop offset="1" stop-color="#1748BD"/>
    </linearGradient>
    <radialGradient id="blob1" cx="0" cy="0" r="1" gradientUnits="userSpaceOnUse" gradientTransform="translate(320 300) rotate(20) scale(390 260)">
      <stop stop-color="#002C8F" stop-opacity="0.18"/>
      <stop offset="1" stop-color="#002C8F" stop-opacity="0"/>
    </radialGradient>
    <radialGradient id="blob2" cx="0" cy="0" r="1" gradientUnits="userSpaceOnUse" gradientTransform="translate(980 620) rotate(-12) scale(360 220)">
      <stop stop-color="#E3FF04" stop-opacity="0.28"/>
      <stop offset="1" stop-color="#E3FF04" stop-opacity="0"/>
    </radialGradient>
  </defs>

  <rect width="1280" height="860" rx="40" fill="url(#bg)"/>
  <ellipse cx="320" cy="300" rx="390" ry="260" fill="url(#blob1)"/>
  <ellipse cx="980" cy="620" rx="360" ry="220" fill="url(#blob2)"/>

  <g opacity="0.9">
    <path d="M220 590C360 470 520 420 708 430C870 438 1006 492 1128 572" stroke="url(#line)" stroke-width="14" stroke-linecap="round"/>
    <path d="M210 640C360 528 522 474 706 482C860 489 1004 538 1118 610" stroke="#5B7FD4" stroke-opacity="0.45" stroke-width="8" stroke-linecap="round"/>
  </g>

  <g>
    <rect x="206" y="192" width="230" height="156" rx="20" fill="#FFFFFF" stroke="#C6D3F2"/>
    <rect x="254" y="240" width="134" height="18" rx="9" fill="#DFE8FF"/>
    <rect x="254" y="272" width="98" height="14" rx="7" fill="#EAF0FF"/>
    <rect x="254" y="300" width="122" height="14" rx="7" fill="#EAF0FF"/>
    <circle cx="398" cy="272" r="12" fill="#E3FF04"/>
  </g>

  <g>
    <rect x="760" y="496" width="322" height="194" rx="22" fill="#FFFFFF" stroke="#C6D3F2"/>
    <path d="M820 610H870L898 560L930 642L956 596H1018" stroke="#002C8F" stroke-width="10" stroke-linecap="round" stroke-linejoin="round"/>
    <circle cx="818" cy="554" r="16" fill="#E3FF04"/>
    <circle cx="1020" cy="554" r="16" fill="#E3FF04"/>
  </g>
</svg>
